<?xml version="1.0" encoding="iso-8859-1"?>
<!-- Generator: Adobe Illustrator 19.1.0, SVG Export Plug-In . SVG Version: 6.00 Build 0)  -->
<svg version="1.1" id="Capa_1" xmlns="http://www.w3.org/2000/svg" xmlns:xlink="http://www.w3.org/1999/xlink" x="0px" y="0px"
	 viewBox="0 0 299.431 299.431" style="enable-background:new 0 0 299.431 299.431;" xml:space="preserve">
<g>
	<g>
		<path d="M296.919,108.628l-26.955-20.177c-0.583-0.741-1.377-1.271-2.224-1.695L153.46,1.231c-2.224-1.642-5.243-1.642-7.467,0
			L31.712,86.756c-0.9,0.371-1.642,0.953-2.277,1.695L2.533,108.575c-2.754,2.065-3.336,5.984-1.271,8.738s5.984,3.336,8.738,1.271
			l18.005-13.451v188.049c0,3.442,2.807,6.249,6.249,6.249h70.062h90.715h70.115c3.442,0,6.249-2.807,6.249-6.249V105.132
			l18.005,13.451c1.112,0.847,2.436,1.218,3.707,1.218c1.906,0,3.76-0.847,4.978-2.489
			C300.256,114.559,299.673,110.693,296.919,108.628z M110.565,286.933V154.965h78.27v132.021h-78.27V286.933z M259.003,286.933
			h-57.67V148.716c0-3.442-2.807-6.249-6.249-6.249h-90.768c-3.442,0-6.249,2.807-6.249,6.249v138.217H40.45V95.759L149.7,13.994
			l109.25,81.765v191.174H259.003z"/>
		<path d="M120.362,80.772c0,16.099,13.186,29.232,29.338,29.232c16.205,0,29.338-13.08,29.338-29.179S165.852,51.593,149.7,51.593
			C133.548,51.54,120.362,64.62,120.362,80.772z M166.593,80.772c0,9.214-7.573,16.734-16.893,16.734
			c-9.32,0-16.893-7.52-16.893-16.734s7.573-16.734,16.893-16.734C159.02,64.038,166.593,71.505,166.593,80.772z"/>
	</g>
</g>
<g>
</g>
<g>
</g>
<g>
</g>
<g>
</g>
<g>
</g>
<g>
</g>
<g>
</g>
<g>
</g>
<g>
</g>
<g>
</g>
<g>
</g>
<g>
</g>
<g>
</g>
<g>
</g>
<g>
</g>
</svg>
